<?xml version="1.0" encoding="UTF-8"?>
<svg id="Layer_1" data-name="Layer 1" xmlns="http://www.w3.org/2000/svg" viewBox="0 0 1290.528 729.307">
  <path d="M1052.087-.004h238.44v134.85c-18.53,29.41-48.18,51.83-84.69,60.4-73.73,17.3-147.52-28.45-164.82-102.17-7.66-32.65-2.96-65.32,11.07-93.08Z" fill="#000" stroke-width="0"/>
  <path d="M1118.947,729.306h-324.48c-40.41-33.82-70.6-80.55-83.57-135.8-31.85-135.74,52.37-271.6,188.11-303.44,135.74-31.85,271.6,52.37,303.45,188.11,22.5,95.89-12.92,191.83-83.51,251.13Z" fill="#000" stroke-width="0"/>
  <path d="M1174.724,408.493l-181.591,76.286-55.078-200.735c6.674-.471,13.397-1.479,20.12-3.057,67.929-15.938,110.077-83.926,94.138-151.856-1.446-6.165-3.322-12.118-5.587-17.834l131.33-56.442,62.775,126.963c-64.181,35.034-99.825,109.731-82.312,184.375,3.552,15.139,9.064,29.308,16.203,42.3Z" fill="#000" stroke-width="0"/>
</svg>