<?xml version="1.0" encoding="UTF-8"?>
<svg id="Layer_1" data-name="Layer 1" xmlns="http://www.w3.org/2000/svg" viewBox="0 0 1290.528 729.307">
  <polygon points="816.341 111.689 724.407 111.689 678.44 191.306 724.407 270.924 816.341 270.924 862.308 191.306 816.341 111.689" fill="#000" stroke-width="0"/>
  <polygon points="1150.777 637.156 1097.577 729.306 859.647 729.306 806.447 637.156 892.527 488.056 1064.697 488.056 1150.777 637.156" fill="#000" stroke-width="0"/>
  <polygon points="1290.527 587.966 1290.527 729.306 1148.917 729.306 1230.507 587.966 1290.527 587.966" fill="#000" stroke-width="0"/>
  <polygon points="1290.527 384.746 1290.527 515.876 1272.707 546.736 1161.367 546.736 1105.697 450.316 1161.367 353.886 1272.707 353.886 1290.527 384.746" fill="#000" stroke-width="0"/>
  <polygon points="1047.776 196.968 912.101 196.968 844.264 314.465 912.101 431.963 1047.776 431.963 1115.613 314.465 1047.776 196.968" fill="#000" stroke-width="0"/>
  <polygon points="1290.527 -.004 1290.527 305.936 1164.307 305.936 1075.987 152.966 1164.307 -.004 1290.527 -.004" fill="#000" stroke-width="0"/>
  <polygon points="2367.86 191.306 2367.86 1598.936 829.75 1598.936 829.75 975.636 1744.56 975.636 1744.56 191.306 2367.86 191.306" fill="#000" stroke-width="0"/>
</svg>