<?xml version="1.0" encoding="UTF-8"?>
<svg id="Layer_1" data-name="Layer 1" xmlns="http://www.w3.org/2000/svg" viewBox="0 0 253.935 114.091">
  <path d="M74.274,45.455c-1.396,0-2.773-.647-3.653-1.866-1.454-2.016-.999-4.828,1.016-6.283L122.149.85c2.018-1.452,4.829-.999,6.283,1.016,1.454,2.016.999,4.828-1.016,6.283l-50.513,36.455c-.797.574-1.718.851-2.63.851Z" fill="#009245" stroke-width="0"/>
  <path d="M175.293,45.455c-.912,0-1.833-.276-2.63-.851L122.149,8.149c-2.015-1.455-2.47-4.268-1.016-6.283,1.455-2.015,4.268-2.468,6.283-1.016l50.514,36.455c2.015,1.455,2.47,4.268,1.016,6.283-.88,1.219-2.257,1.866-3.653,1.866Z" fill="#009245" stroke-width="0"/>
  <g>
    <path d="M24.282,56.726c-2.204-1.387-4.693-2.08-7.467-2.08-2.243,0-4.304.466-6.185,1.396-1.881.932-3.487,2.194-4.816,3.79v-15.39c0-.874-.267-1.576-.798-2.109-.533-.531-1.235-.798-2.109-.798-.836,0-1.53.267-2.08.798-.552.533-.827,1.235-.827,2.109v25.992c.037,3.002.741,5.7,2.109,8.094,1.368,2.395,3.229,4.285,5.586,5.672,2.355,1.388,5.016,2.08,7.98,2.08,3.001,0,5.68-.692,8.036-2.08,2.356-1.387,4.228-3.277,5.615-5.672,1.387-2.394,2.08-5.092,2.08-8.094s-.637-5.69-1.909-8.065c-1.273-2.375-3.013-4.256-5.216-5.644ZM24.481,75.907c-.893,1.635-2.1,2.917-3.619,3.848-1.521.932-3.249,1.396-5.187,1.396-1.901,0-3.62-.465-5.159-1.396-1.539-.931-2.746-2.213-3.619-3.848-.875-1.633-1.312-3.457-1.312-5.472,0-2.052.437-3.876,1.312-5.472.873-1.597,2.08-2.859,3.619-3.791,1.539-.931,3.258-1.396,5.159-1.396,1.938,0,3.666.466,5.187,1.396,1.52.932,2.727,2.194,3.619,3.791.893,1.596,1.34,3.42,1.34,5.472,0,2.015-.447,3.839-1.34,5.472Z" fill="#000" stroke-width="0"/>
    <path d="M65.492,54.817c-.836,0-1.529.267-2.08.798-.552.533-.826,1.235-.826,2.109v16.074c0,1.368-.381,2.604-1.141,3.705-.761,1.103-1.776,1.976-3.05,2.622s-2.727.969-4.36.969c-1.71,0-3.249-.332-4.617-.998-1.367-.664-2.45-1.689-3.249-3.077-.798-1.387-1.196-3.145-1.196-5.272v-14.022c0-.836-.276-1.529-.827-2.081-.551-.55-1.245-.826-2.08-.826s-1.53.276-2.081.826c-.551.552-.826,1.245-.826,2.081v14.022c0,3.154.599,5.813,1.796,7.979,1.196,2.166,2.83,3.811,4.901,4.931,2.071,1.121,4.418,1.682,7.04,1.682,2.545,0,4.816-.551,6.812-1.653,1.088-.601,2.04-1.331,2.879-2.169v.63c0,.837.274,1.53.826,2.081.551.551,1.244.826,2.08.826.874,0,1.577-.275,2.109-.826.531-.551.798-1.244.798-2.081v-25.422c0-.874-.267-1.576-.798-2.109-.532-.531-1.235-.798-2.109-.798Z" fill="#000" stroke-width="0"/>
    <path d="M97.327,69.865c-1.653-.873-3.905-1.596-6.755-2.166-2.052-.417-3.61-.845-4.674-1.282-1.064-.437-1.777-.931-2.138-1.482-.361-.55-.542-1.168-.542-1.853,0-1.102.579-1.938,1.739-2.508,1.158-.569,2.573-.854,4.246-.854,1.444,0,2.717.171,3.819.513,1.102.342,2.128.969,3.078,1.881.569.533,1.272.875,2.108,1.026.836.152,1.559.02,2.166-.399.607-.456.931-1.016.97-1.682.037-.664-.21-1.301-.741-1.909-1.14-1.405-2.679-2.508-4.617-3.306-1.938-.798-4.161-1.197-6.669-1.197-1.938,0-3.801.313-5.586.94-1.787.627-3.249,1.577-4.39,2.85-1.14,1.274-1.71,2.879-1.71,4.817,0,2.204.864,4.066,2.594,5.586,1.729,1.521,4.512,2.66,8.351,3.42,2.964.532,5.007,1.217,6.128,2.052,1.12.836,1.662,1.824,1.624,2.964-.038,1.141-.637,2.072-1.795,2.793-1.16.723-2.842,1.083-5.045,1.083-1.748,0-3.335-.313-4.76-.94s-2.461-1.301-3.106-2.023c-.532-.57-1.168-.902-1.909-.997s-1.492.162-2.252.77c-.646.494-1.017,1.131-1.111,1.909-.096.779.143,1.473.713,2.08,1.254,1.255,3.011,2.29,5.272,3.107,2.26.817,4.721,1.225,7.381,1.225,2.698,0,4.95-.417,6.755-1.254,1.805-.835,3.173-1.956,4.104-3.362.931-1.406,1.396-2.983,1.396-4.731,0-1.52-.362-2.859-1.083-4.019-.723-1.158-1.91-2.175-3.562-3.05Z" fill="#000" stroke-width="0"/>
    <path d="M112.519,54.874c-.837,0-1.53.267-2.081.799s-.826,1.235-.826,2.108v25.365c0,.837.275,1.53.826,2.081s1.244.826,2.081.826c.873,0,1.576-.275,2.108-.826s.798-1.244.798-2.081v-25.365c0-.873-.266-1.576-.798-2.108s-1.235-.799-2.108-.799Z" fill="#000" stroke-width="0"/>
    <path d="M112.519,42.277c-1.026,0-1.91.37-2.65,1.111-.741.741-1.112,1.625-1.112,2.65s.371,1.91,1.112,2.65c.74.741,1.624,1.112,2.65,1.112s1.909-.371,2.65-1.112c.741-.74,1.111-1.624,1.111-2.65s-.37-1.909-1.111-2.65-1.625-1.111-2.65-1.111Z" fill="#000" stroke-width="0"/>
    <path d="M148.513,56.27c-2.071-1.12-4.418-1.681-7.04-1.681-2.508,0-4.769.551-6.782,1.652-1.101.603-2.062,1.332-2.907,2.167v-.628c0-.873-.267-1.576-.798-2.108-.533-.532-1.235-.799-2.109-.799-.836,0-1.53.267-2.08.799-.552.532-.827,1.235-.827,2.108v25.423c0,.836.275,1.529.827,2.08.55.552,1.244.826,2.08.826.874,0,1.576-.274,2.109-.826.531-.551.798-1.244.798-2.08v-16.074c0-1.405.379-2.65,1.14-3.733.76-1.083,1.786-1.947,3.078-2.594,1.291-.646,2.736-.97,4.332-.97,1.747,0,3.296.334,4.646.998,1.349.665,2.423,1.682,3.221,3.05.798,1.367,1.197,3.135,1.197,5.301v14.022c0,.836.274,1.529.826,2.08.551.552,1.244.826,2.08.826s1.529-.274,2.081-.826c.55-.551.826-1.244.826-2.08v-14.022c0-3.153-.599-5.814-1.795-7.98-1.197-2.166-2.832-3.809-4.902-4.931Z" fill="#000" stroke-width="0"/>
    <path d="M185.99,56.613c-2.129-1.312-4.674-1.967-7.639-1.967-3.002,0-5.662.675-7.979,2.023-2.318,1.35-4.133,3.212-5.443,5.586-1.312,2.375-1.967,5.121-1.967,8.236,0,3.078.692,5.806,2.08,8.18,1.387,2.376,3.307,4.238,5.758,5.586,2.45,1.35,5.253,2.023,8.407,2.023,1.747,0,3.581-.322,5.5-.969,1.919-.646,3.524-1.481,4.817-2.508.646-.493.949-1.083.911-1.767-.038-.685-.38-1.312-1.025-1.882-.494-.417-1.074-.617-1.738-.598-.666.02-1.283.237-1.853.655-.761.569-1.759,1.074-2.993,1.511-1.235.437-2.441.655-3.619.655-2.166,0-4.086-.475-5.757-1.425-1.673-.95-2.984-2.242-3.934-3.876-.635-1.092-1.038-2.296-1.249-3.592h21.655c.76,0,1.387-.236,1.881-.712.494-.475.741-1.073.741-1.796,0-3.001-.561-5.652-1.682-7.951s-2.745-4.104-4.873-5.415ZM172.794,60.973c1.539-.949,3.392-1.425,5.558-1.425,1.9,0,3.515.437,4.846,1.311,1.329.875,2.355,2.062,3.078,3.562.512,1.067.844,2.239,1.012,3.506h-18.959c.196-1.085.506-2.107.961-3.05.798-1.653,1.966-2.954,3.505-3.904Z" fill="#000" stroke-width="0"/>
    <path d="M218.622,69.865c-1.653-.873-3.905-1.596-6.755-2.166-2.052-.417-3.61-.845-4.674-1.282-1.064-.437-1.777-.931-2.138-1.482-.361-.55-.542-1.168-.542-1.853,0-1.102.579-1.938,1.739-2.508,1.158-.569,2.573-.854,4.246-.854,1.444,0,2.717.171,3.819.513,1.102.342,2.128.969,3.078,1.881.569.533,1.272.875,2.108,1.026.836.152,1.559.02,2.166-.399.607-.456.931-1.016.97-1.682.037-.664-.21-1.301-.741-1.909-1.14-1.405-2.679-2.508-4.617-3.306-1.938-.798-4.161-1.197-6.669-1.197-1.938,0-3.801.313-5.586.94-1.787.627-3.249,1.577-4.39,2.85-1.14,1.274-1.71,2.879-1.71,4.817,0,2.204.864,4.066,2.594,5.586,1.729,1.521,4.512,2.66,8.351,3.42,2.964.532,5.007,1.217,6.128,2.052,1.12.836,1.662,1.824,1.624,2.964-.038,1.141-.637,2.072-1.795,2.793-1.16.723-2.842,1.083-5.045,1.083-1.748,0-3.335-.313-4.76-.94s-2.461-1.301-3.106-2.023c-.532-.57-1.168-.902-1.909-.997s-1.492.162-2.252.77c-.646.494-1.017,1.131-1.111,1.909-.096.779.143,1.473.713,2.08,1.254,1.255,3.011,2.29,5.272,3.107,2.26.817,4.721,1.225,7.381,1.225,2.698,0,4.95-.417,6.755-1.254,1.805-.835,3.173-1.956,4.104-3.362.931-1.406,1.396-2.983,1.396-4.731,0-1.52-.362-2.859-1.083-4.019-.723-1.158-1.91-2.175-3.562-3.05Z" fill="#000" stroke-width="0"/>
    <path d="M252.852,72.915c-.723-1.158-1.91-2.175-3.562-3.05-1.653-.873-3.905-1.596-6.755-2.166-2.052-.417-3.61-.845-4.674-1.282-1.064-.437-1.777-.931-2.138-1.482-.361-.55-.542-1.168-.542-1.853,0-1.102.579-1.938,1.739-2.508,1.158-.569,2.573-.854,4.246-.854,1.444,0,2.717.171,3.819.513,1.102.342,2.128.969,3.078,1.881.569.533,1.272.875,2.108,1.026.836.152,1.559.02,2.166-.399.607-.456.931-1.016.97-1.682.037-.664-.21-1.301-.741-1.909-1.14-1.405-2.679-2.508-4.617-3.306-1.938-.798-4.161-1.197-6.669-1.197-1.938,0-3.801.313-5.586.94-1.787.627-3.249,1.577-4.39,2.85-1.14,1.274-1.71,2.879-1.71,4.817,0,2.204.864,4.066,2.594,5.586,1.729,1.521,4.512,2.66,8.351,3.42,2.964.532,5.007,1.217,6.128,2.052,1.12.836,1.662,1.824,1.624,2.964-.038,1.141-.637,2.072-1.795,2.793-1.16.723-2.842,1.083-5.045,1.083-1.748,0-3.335-.313-4.76-.94s-2.461-1.301-3.106-2.023c-.532-.57-1.168-.902-1.909-.997s-1.492.162-2.252.77c-.646.494-1.017,1.131-1.111,1.909-.096.779.143,1.473.713,2.08,1.254,1.255,3.011,2.29,5.272,3.107,2.26.817,4.721,1.225,7.381,1.225,2.698,0,4.95-.417,6.755-1.254,1.805-.835,3.173-1.956,4.104-3.362.931-1.406,1.396-2.983,1.396-4.731,0-1.52-.362-2.859-1.083-4.019Z" fill="#000" stroke-width="0"/>
  </g>
  <path d="M175.297,114.091h-101.026c-2.485,0-4.5-2.015-4.5-4.5v-10.2c0-2.485,2.015-4.5,4.5-4.5s4.5,2.015,4.5,4.5v5.7h92.026v-5.7c0-2.485,2.015-4.5,4.5-4.5s4.5,2.015,4.5,4.5v10.2c0,2.485-2.015,4.5-4.5,4.5Z" fill="#009245" stroke-width="0"/>
</svg>