<?xml version="1.0" encoding="UTF-8"?>
<svg id="Layer_1" data-name="Layer 1" xmlns="http://www.w3.org/2000/svg" viewBox="0 0 248.214 38.076">
  <path d="M0,33.694l6.851-6.814h11.935v6.814H0ZM.074,14.798h6.557v12.045L.074,33.363V14.798ZM6.63,14.614H.258l6.373-6.483v6.483ZM6.815,7.8h18.823l-6.741,6.814h-2.21v-3.758h-4.052v3.758h-5.82v-6.814ZM12.634,14.798v8.288h6.151v3.609H6.815v-11.897h5.82ZM18.786,20.213h-2.1v-5.415h2.1v5.415ZM21.401,23.086v-2.873h-2.394v-5.415h6.557v11.897h-6.557v-3.609h2.394ZM19.007,26.88h6.52l-6.52,6.483v-6.483ZM25.564,14.614h-6.373l6.373-6.483v6.483Z" fill="#002c6a" stroke-width="0"/>
  <path d="M29.098,26.88h11.935v6.814h-18.786l6.851-6.814ZM32.044,14.614h-2.983v-6.814h18.823l-4.383,4.42c-1.142-.958-2.8-1.51-4.936-1.51-3.389,0-5.636,1.547-6.52,3.904ZM38.565,23.454c.921,0,1.731-.11,2.468-.331v3.572h-11.971v-11.897h2.947c-.258.7-.368,1.437-.368,2.247,0,3.904,2.615,6.409,6.925,6.409ZM41.032,15.719v3.131c-.368,1.105-1.142,1.694-2.357,1.694-1.694,0-2.763-1.215-2.763-3.314,0-1.031.221-1.879.7-2.432h3.904c.221.258.405.553.516.921ZM38.601,13.987c.737,0,1.326.222,1.768.627h-3.573c.442-.405,1.031-.627,1.805-.627ZM45.158,14.798h2.652v11.897h-6.557v-3.646c2.799-.884,4.199-3.241,4.199-6.188,0-.737-.111-1.437-.295-2.063ZM41.253,26.88h6.52l-6.52,6.483v-6.483ZM43.648,12.367l4.163-4.236v6.483h-2.689c-.295-.885-.773-1.658-1.474-2.247Z" fill="#002c6a" stroke-width="0"/>
  <path d="M51.345,26.88h11.935v6.814h-18.786l6.851-6.814ZM54.955,14.614h-3.646v-6.814h18.823l-4.826,4.898c-.847-1.252-2.505-1.842-4.715-1.842h-5.636v3.758ZM61.88,23.086h1.399v3.609h-11.971v-11.897h3.646v8.288h4.052v-4.162h1.032l1.842,4.162ZM61.806,14.614h-2.8v-.995h1.105c.921,0,1.51.368,1.694.995ZM59.006,14.798h2.836c.037.11.037.222.037.332,0,.994-.589,1.437-1.768,1.437h-1.105v-1.769ZM65.895,14.798h4.163v11.897h-6.557v-3.609h3.131l-2.726-4.973c1.326-.663,1.989-1.731,1.989-3.241v-.074ZM63.501,26.88h6.52l-6.52,6.483v-6.483ZM65.416,12.846l4.641-4.715v6.483h-4.163c-.037-.663-.221-1.253-.479-1.769Z" fill="#002c6a" stroke-width="0"/>
  <path d="M73.591,26.88h11.935v6.814h-18.786l6.851-6.814ZM76.943,14.614h-3.389v-6.814h18.823l-3.278,3.314v-.221h-4.052v3.721h-4.052v-3.721h-4.052v3.721ZM82.874,23.344c.995,0,1.878-.11,2.652-.331v3.683h-11.971v-11.897h3.389v3.758c0,3.094,2.357,4.788,5.931,4.788ZM80.995,14.798h4.052v3.353c0,1.252-.59,2.1-1.953,2.1-1.399,0-2.1-.811-2.1-2.1v-3.353ZM89.099,14.798h3.205v11.897h-6.557v-3.757c2.1-.663,3.352-2.173,3.352-4.42v-3.721ZM85.747,26.88h6.52l-6.52,6.483v-6.483ZM89.099,11.409l3.205-3.278v6.483h-3.205v-3.205Z" fill="#002c6a" stroke-width="0"/>
  <path d="M95.838,26.88h11.935v6.814h-18.786l6.851-6.814ZM97.754,14.614h-1.952v-6.814h18.823l-3.021,3.057h-4.015l-1.031,3.758h-2.431l-1.142-3.758h-4.973l-.258,3.758ZM106.926,22.865l.847-2.837v6.667h-11.971v-11.897h1.952l-.589,8.288h3.536l.332-7.367h.184l2.321,7.146h3.389ZM105.342,18.519l-1.142-3.721h2.284l-1.031,3.721h-.111ZM111.862,10.856l2.689-2.726v18.564h-6.557v-7.403l1.068-3.573h.221l.479,7.367h3.646l-1.215-12.229h-.332ZM107.994,26.88h6.52l-6.52,6.483v-6.483Z" fill="#002c6a" stroke-width="0"/>
  <path d="M133.481,33.694l6.851-6.814h11.935v6.814h-18.786ZM133.554,14.798h6.557v12.045l-6.557,6.521V14.798ZM140.111,14.614h-6.373l6.373-6.483v6.483ZM140.295,7.8h18.823l-6.741,6.814h-.7v-3.758h-3.831v3.758h-7.551v-6.814ZM147.846,14.798v8.288h3.831v-8.288h.589v11.897h-11.971v-11.897h7.551ZM152.487,14.798h6.557v11.897h-6.557v-11.897ZM152.487,26.88h6.52l-6.52,6.483v-6.483ZM159.044,14.614h-6.373l6.373-6.483v6.483Z" fill="#002c6a" stroke-width="0"/>
  <path d="M162.579,26.88h11.935v6.814h-18.786l6.851-6.814ZM166.668,14.614h-4.125v-6.814h18.823l-4.678,4.715c-.773-1.105-2.284-1.658-4.383-1.658h-5.636v3.758ZM174.513,18.814v7.882h-11.971v-11.897h4.125v8.288h4.052v-3.941h1.51c.884,0,1.621-.11,2.284-.331ZM173.408,14.614h-2.689v-1.031h.884c1.031,0,1.621.368,1.805,1.031ZM170.719,14.798h2.726c.037.11.037.258.037.405,0,.995-.663,1.584-1.989,1.584h-.773v-1.989ZM177.386,14.798h3.905v11.897h-6.557v-7.956c1.768-.626,2.652-2.025,2.652-3.904v-.037ZM174.734,26.88h6.52l-6.52,6.483v-6.483ZM176.834,12.662l4.457-4.531v6.483h-3.905c-.037-.737-.221-1.4-.552-1.952Z" fill="#002c6a" stroke-width="0"/>
  <path d="M184.825,26.88h11.935v6.814h-18.786l6.851-6.814ZM189.356,14.614h-4.567v-6.814h18.823l-5.157,5.193.184-2.025c-1.437-.185-2.762-.332-4.236-.332-3.021,0-5.009,1.363-5.046,3.979ZM193.997,23.381c1.068,0,1.989-.147,2.763-.442v3.757h-11.971v-11.897h4.567c.147,4.052,5.709,3.463,5.709,5.01,0,.516-.479.736-1.142.736-1.179,0-2.468-.404-3.941-.957l-.258,3.241c1.547.331,2.689.553,4.272.553ZM197.313,14.172l-.442.442h-3.352c.037-.516.479-.737,1.179-.737.663,0,1.51.11,2.615.295ZM193.555,14.798h3.205v1.4c-1.437-.59-2.983-.811-3.205-1.4ZM196.981,14.798h6.557v11.897h-6.557v-3.83c1.399-.627,2.21-1.769,2.21-3.463s-1.031-2.541-2.21-3.094v-1.511ZM196.981,26.88h6.52l-6.52,6.483v-6.483ZM198.418,13.325l5.12-5.194v6.483h-6.373l.405-.405.773.11.074-.994Z" fill="#002c6a" stroke-width="0"/>
  <path d="M207.072,26.88h11.935v6.814h-18.786l6.851-6.814ZM210.424,14.614h-3.389v-6.814h18.823l-3.278,3.314v-.221h-4.052v3.721h-4.052v-3.721h-4.052v3.721ZM216.355,23.344c.995,0,1.878-.11,2.652-.331v3.683h-11.971v-11.897h3.389v3.758c0,3.094,2.357,4.788,5.931,4.788ZM214.476,14.798h4.052v3.353c0,1.252-.59,2.1-1.953,2.1-1.399,0-2.1-.811-2.1-2.1v-3.353ZM222.58,14.798h3.205v11.897h-6.557v-3.757c2.1-.663,3.352-2.173,3.352-4.42v-3.721ZM219.228,26.88h6.52l-6.52,6.483v-6.483ZM222.58,11.409l3.205-3.278v6.483h-3.205v-3.205Z" fill="#002c6a" stroke-width="0"/>
  <path d="M229.319,26.88h11.935v6.814h-18.786l6.851-6.814ZM231.234,14.614h-1.952v-6.814h18.823l-3.021,3.057h-4.015l-1.031,3.758h-2.431l-1.142-3.758h-4.973l-.258,3.758ZM240.406,22.865l.847-2.837v6.667h-11.971v-11.897h1.952l-.589,8.288h3.536l.332-7.367h.184l2.321,7.146h3.389ZM238.822,18.519l-1.142-3.721h2.284l-1.031,3.721h-.111ZM245.342,10.856l2.689-2.726v18.564h-6.557v-7.403l1.068-3.573h.221l.479,7.367h3.646l-1.215-12.229h-.332ZM241.475,26.88h6.52l-6.52,6.483v-6.483Z" fill="#002c6a" stroke-width="0"/>
</svg>
