<?xml version="1.0" encoding="UTF-8"?>
<svg id="Layer_1" data-name="Layer 1" xmlns="http://www.w3.org/2000/svg" viewBox="0 0 139.503 139.634">
  <path d="M139.493,64.456c.022-.851-.495-1.656-1.344-1.945l-37.359-12.744V2.519c0-.616-.284-1.198-.77-1.577-.487-.378-1.12-.512-1.717-.363L1.514,24.847c-.89.224-1.514,1.023-1.514,1.94v48.82c0,.02.006.039.007.059.003.1.016.198.034.295.008.043.011.087.022.129.031.126.075.247.129.364.005.011.007.023.013.033.061.125.138.242.224.352.028.036.062.067.093.101.064.071.131.14.205.202.016.013.027.03.043.042.018.014.04.018.058.031.156.114.326.214.519.28.003,0,.005.003.008.004h0l37.36,12.744v47.39c0,.616.284,1.198.77,1.577.355.276.789.423,1.23.423.163,0,.326-.02.486-.06l96.789-24.269c.89-.224,1.514-1.023,1.514-1.94v-48.82c0-.03-.009-.059-.01-.089ZM40.799,86.73l-31.745-10.829,89.889-22.538,31.745,10.829-89.888,22.538ZM4,28.348L96.789,5.083v44.696L4,73.045V28.348ZM135.503,111.805l-92.789,23.266v-44.696l92.789-23.266v44.696Z" fill="#a81d63" stroke-width="0"/>
  <g>
    <path d="M19.446,34.286l13.243-3.302c6.192-1.544,8.875.842,8.875,4.541,0,3.072-1.858,5.383-3.83,6.62,2.282.157,4.75,1.444,4.75,4.963,0,4.892-3.813,8.797-9.773,10.283l-13.264,3.307v-26.412ZM31.629,41.731c3.028-.755,4.166-2.254,4.166-4.123,0-2.146-1.642-2.671-4.036-2.074l-6.753,1.684v6.165l6.623-1.651ZM25.006,55.011l6.814-1.699c2.778-.693,4.753-2.144,4.753-4.909,0-2.316-1.596-3.207-4.795-2.409l-6.773,1.689v7.329Z" fill="#303647" stroke-width="0"/>
    <path d="M54.919,25.441v26.412l-5.649,1.409v-26.412l5.649-1.409Z" fill="#303647" stroke-width="0"/>
    <path d="M69.797,26.306l-9.023,2.25v-4.574l23.678-5.904v4.574l-8.996,2.243v21.838l-5.659,1.411v-21.838Z" fill="#303647" stroke-width="0"/>
    <path d="M69.94,109.409c0-4.29.038-8.796.167-11.526l-.077.019c-1.188,4.793-3.923,13.548-6.754,22.754l-4.579,1.142c-2.175-6.798-5.143-15.231-6.378-19.496l-.074.018c.195,2.803.363,7.709.363,11.893v9.103l-4.763,1.188v-24.535l7.648-1.907c2.472,6.739,5.051,13.809,5.792,16.892l.037-.009c.911-3.708,3.658-12.168,6.093-19.855l7.594-1.893v24.535l-5.069,1.264v-9.586Z" fill="#303647" stroke-width="0"/>
    <path d="M87.692,108.587l-2.261,6.546-5.336,1.33,9.494-26.902,6.649-1.658,9.942,22.056-5.634,1.405-2.387-5.387-10.468,2.61ZM96.764,102.058c-2.248-5.168-3.413-7.944-3.994-9.729l-.035.009c-.561,2.111-1.906,6.303-3.724,11.653l7.753-1.933Z" fill="#303647" stroke-width="0"/>
    <path d="M111.132,84.19l11.635-2.901c5.566-1.388,9.115.644,9.115,5.299,0,5.054-3.646,8.745-9.194,10.128l-6.288,1.568v9.127l-5.269,1.314v-24.535ZM116.4,94.136l5.79-1.444c2.682-.669,4.425-2.063,4.425-4.699,0-2.308-1.526-3.152-4.388-2.439l-5.827,1.453v7.129Z" fill="#303647" stroke-width="0"/>
  </g>
</svg>