<?xml version="1.0" encoding="UTF-8"?>
<svg id="Layer_1" data-name="Layer 1" xmlns="http://www.w3.org/2000/svg" viewBox="0 0 248.214 38.076">
  <path d="M44.36,37.842l-2.881-5.258C40.383,30.576,24.298,1.235,23.83.371c-.264.399-5.708,8.542-11.092,16.593L1.568,10.992l10.682,6.703c-4.864,7.275-9.547,14.281-10.168,15.214l6.584,4.078,9.071-15.848,21.636,13.576,4.987,3.129ZM23.734,10.66l11.905,18.55-17.245-9.221,5.34-9.329Z" fill="#e5a739" stroke-width="0"/>
  <g>
    <path d="M58.69,10.023h13.075l3.187,3.216v7.297l-3.216,3.247h-8.995v7.088h-4.05V10.023ZM69.918,20.388l1.042-1.043v-4.884l-1.042-1.043h-7.178v6.97h7.178Z" fill="#000" stroke-width="0"/>
    <path d="M80.61,10.023h4.05v17.423h10.424v3.425h-14.474V10.023Z" fill="#000" stroke-width="0"/>
    <path d="M105.836,10.023h3.693l7.625,20.848h-4.11l-1.698-4.616h-7.327l-1.698,4.616h-4.11l7.625-20.848ZM110.452,22.919l-2.77-7.922h-.06l-2.68,7.922h5.51Z" fill="#000" stroke-width="0"/>
    <path d="M121.174,27.446v-13.998l3.425-3.425h10.186l3.365,3.365v3.187h-4.05v-1.697l-1.4-1.4h-5.957l-1.519,1.52v10.9l1.519,1.519h5.957l1.4-1.399v-1.697h4.05v3.187l-3.365,3.365h-10.186l-3.425-3.425Z" fill="#000" stroke-width="0"/>
    <path d="M143.66,10.023h15.07v3.425h-11.02v5.271h10.156v3.365h-10.156v5.361h11.02v3.425h-15.07V10.023Z" fill="#000" stroke-width="0"/>
    <path d="M164.388,10.023h4.05v8.726h8.816v-8.726h4.05v20.848h-4.05v-8.667h-8.816v8.667h-4.05V10.023Z" fill="#000" stroke-width="0"/>
    <path d="M187.559,27.446v-13.998l3.425-3.425h10.722l3.425,3.425v13.998l-3.425,3.425h-10.722l-3.425-3.425ZM199.562,27.416l1.519-1.519v-10.9l-1.519-1.52h-6.433l-1.519,1.52v10.9l1.519,1.519h6.433Z" fill="#000" stroke-width="0"/>
    <path d="M211.385,10.023h4.05v17.423h10.424v3.425h-14.474V10.023Z" fill="#000" stroke-width="0"/>
    <path d="M230.773,10.023h13.343l3.574,3.573v13.7l-3.574,3.574h-13.343V10.023ZM242.121,27.416l1.519-1.519v-10.9l-1.519-1.52h-7.297v13.938h7.297Z" fill="#000" stroke-width="0"/>
  </g>
</svg>
